<mxfile>
    <diagram id="zhB2w1Cr3E7jYUj-LeK4" name="Page-1">
        <mxGraphModel dx="1331" dy="711" grid="1" gridSize="10" guides="1" tooltips="1" connect="1" arrows="1" fold="1" page="1" pageScale="1" pageWidth="827" pageHeight="1169" math="0" shadow="0">
            <root>
                <mxCell id="0"/>
                <mxCell id="1" parent="0"/>
                <mxCell id="CCXEmPilWzcvK0_QhqcG-40" style="edgeStyle=orthogonalEdgeStyle;rounded=0;orthogonalLoop=1;jettySize=auto;html=1;exitX=0.5;exitY=1;exitDx=0;exitDy=0;startArrow=none;startFill=0;endArrow=classic;endFill=1;" parent="1" source="CCXEmPilWzcvK0_QhqcG-1" target="CCXEmPilWzcvK0_QhqcG-2" edge="1">
                    <mxGeometry relative="1" as="geometry"/>
                </mxCell>
                <mxCell id="CCXEmPilWzcvK0_QhqcG-1" value="Service Portal **" style="rounded=0;whiteSpace=wrap;html=1;fillColor=#f8cecc;strokeColor=#b85450;" parent="1" vertex="1">
                    <mxGeometry x="320" y="10" width="160" height="40" as="geometry"/>
                </mxCell>
                <mxCell id="CCXEmPilWzcvK0_QhqcG-38" style="edgeStyle=orthogonalEdgeStyle;rounded=0;orthogonalLoop=1;jettySize=auto;html=1;exitX=0.5;exitY=1;exitDx=0;exitDy=0;entryX=0.5;entryY=0;entryDx=0;entryDy=0;entryPerimeter=0;startArrow=none;startFill=0;endArrow=none;endFill=0;" parent="1" source="CCXEmPilWzcvK0_QhqcG-2" target="CCXEmPilWzcvK0_QhqcG-14" edge="1">
                    <mxGeometry relative="1" as="geometry"/>
                </mxCell>
                <mxCell id="CCXEmPilWzcvK0_QhqcG-45" value="Subscribe to relevant terms and objects " style="edgeLabel;html=1;align=left;verticalAlign=middle;resizable=0;points=[];fontStyle=2" parent="CCXEmPilWzcvK0_QhqcG-38" vertex="1" connectable="0">
                    <mxGeometry y="2" relative="1" as="geometry">
                        <mxPoint as="offset"/>
                    </mxGeometry>
                </mxCell>
                <mxCell id="CCXEmPilWzcvK0_QhqcG-41" style="edgeStyle=orthogonalEdgeStyle;rounded=0;orthogonalLoop=1;jettySize=auto;html=1;exitX=1;exitY=0.5;exitDx=0;exitDy=0;entryX=1;entryY=0.5;entryDx=0;entryDy=0;startArrow=none;startFill=0;endArrow=classic;endFill=1;" parent="1" source="CCXEmPilWzcvK0_QhqcG-2" target="CCXEmPilWzcvK0_QhqcG-12" edge="1">
                    <mxGeometry relative="1" as="geometry"/>
                </mxCell>
                <mxCell id="CCXEmPilWzcvK0_QhqcG-43" value="Search for Terms" style="edgeLabel;html=1;align=right;verticalAlign=middle;resizable=0;points=[];fontStyle=2" parent="CCXEmPilWzcvK0_QhqcG-41" vertex="1" connectable="0">
                    <mxGeometry x="-0.1288" y="-31" relative="1" as="geometry">
                        <mxPoint as="offset"/>
                    </mxGeometry>
                </mxCell>
                <mxCell id="CCXEmPilWzcvK0_QhqcG-42" style="edgeStyle=orthogonalEdgeStyle;rounded=0;orthogonalLoop=1;jettySize=auto;html=1;exitX=0;exitY=0.5;exitDx=0;exitDy=0;entryX=0;entryY=0.5;entryDx=0;entryDy=0;startArrow=none;startFill=0;endArrow=classic;endFill=1;" parent="1" source="CCXEmPilWzcvK0_QhqcG-2" target="CCXEmPilWzcvK0_QhqcG-11" edge="1">
                    <mxGeometry relative="1" as="geometry"/>
                </mxCell>
                <mxCell id="CCXEmPilWzcvK0_QhqcG-44" value="Search for Objects" style="edgeLabel;html=1;align=left;verticalAlign=middle;resizable=0;points=[];fontStyle=2" parent="CCXEmPilWzcvK0_QhqcG-42" vertex="1" connectable="0">
                    <mxGeometry x="-0.1254" y="32" relative="1" as="geometry">
                        <mxPoint as="offset"/>
                    </mxGeometry>
                </mxCell>
                <mxCell id="CCXEmPilWzcvK0_QhqcG-2" value="Collector *" style="rounded=0;whiteSpace=wrap;html=1;fillColor=#f8cecc;strokeColor=#b85450;" parent="1" vertex="1">
                    <mxGeometry x="320" y="110" width="160" height="40" as="geometry"/>
                </mxCell>
                <mxCell id="CCXEmPilWzcvK0_QhqcG-22" style="edgeStyle=orthogonalEdgeStyle;rounded=0;orthogonalLoop=1;jettySize=auto;html=1;exitX=0.5;exitY=1;exitDx=0;exitDy=0;exitPerimeter=0;entryX=0.5;entryY=0;entryDx=0;entryDy=0;startArrow=classic;startFill=1;endArrow=none;endFill=0;" parent="1" source="CCXEmPilWzcvK0_QhqcG-9" target="CCXEmPilWzcvK0_QhqcG-12" edge="1">
                    <mxGeometry relative="1" as="geometry"/>
                </mxCell>
                <mxCell id="CCXEmPilWzcvK0_QhqcG-26" style="edgeStyle=orthogonalEdgeStyle;rounded=0;orthogonalLoop=1;jettySize=auto;html=1;exitX=0.5;exitY=0;exitDx=0;exitDy=0;exitPerimeter=0;startArrow=classic;startFill=1;endArrow=none;endFill=0;entryX=1;entryY=0.5;entryDx=0;entryDy=0;entryPerimeter=0;" parent="1" source="CCXEmPilWzcvK0_QhqcG-9" target="CCXEmPilWzcvK0_QhqcG-14" edge="1">
                    <mxGeometry relative="1" as="geometry">
                        <mxPoint x="400" y="170" as="targetPoint"/>
                    </mxGeometry>
                </mxCell>
                <mxCell id="CCXEmPilWzcvK0_QhqcG-9" value="Network of Terms" style="shape=card;whiteSpace=wrap;html=1;size=20;fillColor=#d5e8d4;strokeColor=#82b366;" parent="1" vertex="1">
                    <mxGeometry x="500" y="280" width="160" height="50" as="geometry"/>
                </mxCell>
                <mxCell id="CCXEmPilWzcvK0_QhqcG-23" style="edgeStyle=orthogonalEdgeStyle;rounded=0;orthogonalLoop=1;jettySize=auto;html=1;exitX=1;exitY=0.5;exitDx=0;exitDy=0;entryX=0;entryY=0.5;entryDx=0;entryDy=0;endArrow=none;endFill=0;dashed=1;" parent="1" source="CCXEmPilWzcvK0_QhqcG-11" target="CCXEmPilWzcvK0_QhqcG-12" edge="1">
                    <mxGeometry relative="1" as="geometry"/>
                </mxCell>
                <mxCell id="CCXEmPilWzcvK0_QhqcG-31" value="can be the &lt;br&gt;same organisation&amp;nbsp; " style="edgeLabel;html=1;align=center;verticalAlign=middle;resizable=0;points=[];fontStyle=2" parent="CCXEmPilWzcvK0_QhqcG-23" vertex="1" connectable="0">
                    <mxGeometry x="0.1625" y="-1" relative="1" as="geometry">
                        <mxPoint x="-6.5" y="19" as="offset"/>
                    </mxGeometry>
                </mxCell>
                <mxCell id="CCXEmPilWzcvK0_QhqcG-24" style="edgeStyle=orthogonalEdgeStyle;rounded=0;orthogonalLoop=1;jettySize=auto;html=1;exitX=0.625;exitY=0;exitDx=0;exitDy=0;endArrow=none;endFill=0;entryX=0.5;entryY=1;entryDx=0;entryDy=0;entryPerimeter=0;" parent="1" source="CCXEmPilWzcvK0_QhqcG-11" target="CCXEmPilWzcvK0_QhqcG-9" edge="1">
                    <mxGeometry relative="1" as="geometry"/>
                </mxCell>
                <mxCell id="CCXEmPilWzcvK0_QhqcG-30" value="&lt;div&gt;Metadata&lt;br&gt;Term Source&lt;br&gt;&lt;/div&gt;" style="edgeLabel;html=1;align=left;verticalAlign=middle;resizable=0;points=[];fontStyle=2" parent="CCXEmPilWzcvK0_QhqcG-24" vertex="1" connectable="0">
                    <mxGeometry x="0.8607" y="-2" relative="1" as="geometry">
                        <mxPoint as="offset"/>
                    </mxGeometry>
                </mxCell>
                <mxCell id="CCXEmPilWzcvK0_QhqcG-11" value="Collection Management system &lt;br&gt;of Cultural Heritage Institution" style="shape=hexagon;perimeter=hexagonPerimeter2;whiteSpace=wrap;html=1;fixedSize=1;fillColor=#e1d5e7;strokeColor=#9673a6;" parent="1" vertex="1">
                    <mxGeometry x="80" y="420" width="280" height="40" as="geometry"/>
                </mxCell>
                <mxCell id="CCXEmPilWzcvK0_QhqcG-12" value="Terminology management system &lt;br&gt;of terminology source provider" style="shape=hexagon;perimeter=hexagonPerimeter2;whiteSpace=wrap;html=1;fixedSize=1;fillColor=#e1d5e7;strokeColor=#9673a6;" parent="1" vertex="1">
                    <mxGeometry x="440" y="420" width="280" height="40" as="geometry"/>
                </mxCell>
                <mxCell id="CCXEmPilWzcvK0_QhqcG-14" value="Knowledge Graph" style="shape=card;whiteSpace=wrap;html=1;size=20;fillColor=#d5e8d4;strokeColor=#82b366;" parent="1" vertex="1">
                    <mxGeometry x="320" y="190" width="160" height="50" as="geometry"/>
                </mxCell>
                <mxCell id="CCXEmPilWzcvK0_QhqcG-21" style="edgeStyle=orthogonalEdgeStyle;rounded=0;orthogonalLoop=1;jettySize=auto;html=1;exitX=0.5;exitY=1;exitDx=0;exitDy=0;exitPerimeter=0;entryX=0.5;entryY=0;entryDx=0;entryDy=0;endArrow=none;endFill=0;startArrow=classic;startFill=1;" parent="1" source="CCXEmPilWzcvK0_QhqcG-15" target="CCXEmPilWzcvK0_QhqcG-11" edge="1">
                    <mxGeometry relative="1" as="geometry"/>
                </mxCell>
                <mxCell id="CCXEmPilWzcvK0_QhqcG-27" value="Metadata&lt;br&gt;- Organisation&lt;br&gt;- Dataset" style="edgeLabel;html=1;align=left;verticalAlign=middle;resizable=0;points=[];labelPosition=center;verticalLabelPosition=middle;fontStyle=2" parent="CCXEmPilWzcvK0_QhqcG-21" vertex="1" connectable="0">
                    <mxGeometry x="-0.025" relative="1" as="geometry">
                        <mxPoint x="-80" as="offset"/>
                    </mxGeometry>
                </mxCell>
                <mxCell id="CCXEmPilWzcvK0_QhqcG-25" style="edgeStyle=orthogonalEdgeStyle;rounded=0;orthogonalLoop=1;jettySize=auto;html=1;exitX=0.5;exitY=0;exitDx=0;exitDy=0;exitPerimeter=0;startArrow=classic;startFill=1;endArrow=none;endFill=0;entryX=0;entryY=0;entryDx=0;entryDy=35;entryPerimeter=0;" parent="1" source="CCXEmPilWzcvK0_QhqcG-15" target="CCXEmPilWzcvK0_QhqcG-14" edge="1">
                    <mxGeometry relative="1" as="geometry"/>
                </mxCell>
                <mxCell id="CCXEmPilWzcvK0_QhqcG-33" value="&lt;div&gt;&lt;i&gt;Subscribe to a selection &lt;br&gt;&lt;/i&gt;&lt;/div&gt;&lt;div&gt;&lt;i&gt;of relevant datasets&lt;br&gt;&lt;/i&gt;&lt;/div&gt;" style="edgeLabel;html=1;align=right;verticalAlign=middle;resizable=0;points=[];" parent="CCXEmPilWzcvK0_QhqcG-25" vertex="1" connectable="0">
                    <mxGeometry x="-0.3189" y="1" relative="1" as="geometry">
                        <mxPoint x="-9" y="13" as="offset"/>
                    </mxGeometry>
                </mxCell>
                <mxCell id="CCXEmPilWzcvK0_QhqcG-15" value="Registry" style="shape=card;whiteSpace=wrap;html=1;size=20;fillColor=#d5e8d4;strokeColor=#82b366;" parent="1" vertex="1">
                    <mxGeometry x="140" y="280" width="160" height="50" as="geometry"/>
                </mxCell>
                <mxCell id="CCXEmPilWzcvK0_QhqcG-32" value="&lt;div&gt;&lt;i&gt;Subscribe to a selection &lt;br&gt;&lt;/i&gt;&lt;/div&gt;&lt;div&gt;&lt;i&gt;of relevant term sources&lt;br&gt;&lt;/i&gt;&lt;/div&gt;" style="edgeLabel;html=1;align=left;verticalAlign=middle;resizable=0;points=[];fontStyle=2" parent="1" vertex="1" connectable="0">
                    <mxGeometry x="590" y="230" as="geometry"/>
                </mxCell>
                <mxCell id="CCXEmPilWzcvK0_QhqcG-35" value="&amp;nbsp;Erfgoedpod" style="shape=hexagon;perimeter=hexagonPerimeter2;whiteSpace=wrap;html=1;fixedSize=1;labelPosition=right;verticalLabelPosition=middle;align=left;verticalAlign=middle;" parent="1" vertex="1">
                    <mxGeometry x="10" y="10" width="60" height="20" as="geometry"/>
                </mxCell>
                <mxCell id="CCXEmPilWzcvK0_QhqcG-36" value="Service Hub" style="shape=card;whiteSpace=wrap;html=1;size=20;labelPosition=right;verticalLabelPosition=middle;align=left;verticalAlign=middle;spacingRight=0;" parent="1" vertex="1">
                    <mxGeometry x="10" y="40" width="60" height="30" as="geometry"/>
                </mxCell>
                <mxCell id="CCXEmPilWzcvK0_QhqcG-37" value="&lt;div align=&quot;left&quot;&gt;*&amp;nbsp; equivalent to the 'Browser' in NDE&lt;/div&gt;&lt;div align=&quot;left&quot;&gt;** similar to the concept 'Scolarly browser' &lt;br&gt;&lt;/div&gt;&lt;div align=&quot;left&quot;&gt;&amp;nbsp;&amp;nbsp;&amp;nbsp; in the ResearcherPod project&lt;br&gt;&lt;/div&gt;&amp;nbsp;" style="text;html=1;strokeColor=none;fillColor=none;align=left;verticalAlign=middle;whiteSpace=wrap;rounded=0;" parent="1" vertex="1">
                    <mxGeometry x="10" y="100" width="270" height="20" as="geometry"/>
                </mxCell>
            </root>
        </mxGraphModel>
    </diagram>
</mxfile>